<?xml version="1.0" encoding="UTF-8" standalone="no"?>
<!-- Created with Inkscape (http://www.inkscape.org/) -->

<svg
   xmlns:dc="http://purl.org/dc/elements/1.1/"
   xmlns:cc="http://creativecommons.org/ns#"
   xmlns:rdf="http://www.w3.org/1999/02/22-rdf-syntax-ns#"
   xmlns:svg="http://www.w3.org/2000/svg"
   xmlns="http://www.w3.org/2000/svg"
   xmlns:sodipodi="http://sodipodi.sourceforge.net/DTD/sodipodi-0.dtd"
   xmlns:inkscape="http://www.inkscape.org/namespaces/inkscape"
   version="1.1"
   id="svg10"
   xml:space="preserve"
   width="213.33333"
   height="213.33333"
   viewBox="0 0 213.33333 213.33333"
   sodipodi:docname="mapillary.svg"
   inkscape:version="0.92.3 (2405546, 2018-03-11)"><metadata
     id="metadata16"><rdf:RDF><cc:Work
         rdf:about=""><dc:format>image/svg+xml</dc:format><dc:type
           rdf:resource="http://purl.org/dc/dcmitype/StillImage" /><dc:title></dc:title></cc:Work></rdf:RDF></metadata><defs
     id="defs14"><clipPath
       clipPathUnits="userSpaceOnUse"
       id="clipPath28"><path
         d="M 0,160 H 160 V 0 H 0 Z"
         id="path26"
         inkscape:connector-curvature="0"
         style="clip-rule:evenodd" /></clipPath><clipPath
       clipPathUnits="userSpaceOnUse"
       id="clipPath34"><path
         d="M -34,-225 H 856 V 195 H -34 Z"
         id="path32"
         inkscape:connector-curvature="0" /></clipPath><clipPath
       clipPathUnits="userSpaceOnUse"
       id="clipPath44"><path
         d="m 80,20 c 33.1371,0 60,26.86286 60,60 0,33.1371 -26.8629,60 -60,60 C 46.86286,140 20,113.1371 20,80 20,46.86286 46.86286,20 80,20"
         id="path42"
         inkscape:connector-curvature="0"
         style="clip-rule:evenodd" /></clipPath><clipPath
       clipPathUnits="userSpaceOnUse"
       id="clipPath50"><path
         d="M -34,-225 H 856 V 195 H -34 Z"
         id="path48"
         inkscape:connector-curvature="0" /></clipPath><clipPath
       clipPathUnits="userSpaceOnUse"
       id="clipPath60"><path
         d="m 76.01656,69.02726 c -1.08067,0.5519 -1.34397,1.50036 -0.76575,2.52833 0.29408,0.52281 0.93157,1.56561 1.45111,2.40603 0.71448,1.15576 1.75585,1.15923 2.34367,0.81652 0.58782,-0.34271 8.90686,-4.71751 9.44486,-5.01378 1.27032,-0.69952 3.1437,0.90212 2.30338,2.30532 -0.40131,0.67013 -3.90716,7.06471 -5.02107,9.17239 -0.50683,0.95899 -0.36827,1.82152 0.76148,2.39549 0.55906,0.28402 1.55922,0.8769 2.42702,1.40341 0.88588,0.53748 2.06496,0.1335 2.54431,-0.66744 0.47934,-0.80095 14.67243,-26.95129 15.12553,-27.76316 0.8995,-1.61179 -0.8497,-3.33584 -2.5027,-2.44475 -0.827,0.44588 -27.03116,14.30975 -28.11184,14.86164 z M 48.35228,83.65089 c -1.39499,0.75632 -1.13984,2.72147 0.62046,3.22268 1.49142,0.42466 13.60266,4.48379 17.26778,5.71392 0.66076,0.22178 1.17661,0.73178 1.39859,1.38291 1.24833,3.66174 5.41788,15.8923 5.88531,17.2634 0.55054,1.615 2.5436,1.6209 3.35592,0.0575 0.28852,-0.5553 11.25502,-20.42837 11.63657,-21.27137 0.38155,-0.84301 0.13573,-1.7768 -0.72903,-2.31541 -0.86475,-0.53861 -2.27498,-1.34422 -2.76631,-1.64942 -0.88951,-0.55254 -1.74209,-0.16785 -2.14818,0.68803 -0.40608,0.85588 -3.53457,6.3782 -4.81028,8.72266 -0.63766,1.17187 -2.55866,1.62158 -3.20436,-0.27244 -0.46702,-1.36992 -1.55554,-4.56288 -2.1222,-6.22508 -0.2168,-0.63593 -0.76631,-1.18329 -1.40825,-1.39589 -1.59309,-0.5276 -4.6202,-1.53012 -6.38756,-2.11544 -1.26122,-0.41769 -1.87425,-2.34916 -0.17144,-3.16251 0.35569,-0.16989 8.02241,-4.28308 8.81344,-4.65929 0.79102,-0.37621 1.23088,-1.4622 0.76768,-2.23157 -0.63181,-1.04941 -1.44066,-2.38127 -1.73408,-2.81366 -0.50853,-0.7494 -1.50747,-0.99898 -2.34644,-0.55666 -0.83896,0.44231 -21.41916,11.34739 -21.91762,11.61764 z"
         id="path58"
         inkscape:connector-curvature="0"
         style="clip-rule:evenodd" /></clipPath><clipPath
       clipPathUnits="userSpaceOnUse"
       id="clipPath66"><path
         d="M -34,-225 H 856 V 195 H -34 Z"
         id="path64"
         inkscape:connector-curvature="0" /></clipPath></defs><sodipodi:namedview
     pagecolor="#ffffff"
     bordercolor="#666666"
     borderopacity="1"
     objecttolerance="10"
     gridtolerance="10"
     guidetolerance="10"
     inkscape:pageopacity="0"
     inkscape:pageshadow="2"
     inkscape:window-width="1920"
     inkscape:window-height="1003"
     id="namedview12"
     showgrid="false"
     inkscape:zoom="3.7968751"
     inkscape:cx="106.66666"
     inkscape:cy="106.66666"
     inkscape:window-x="-9"
     inkscape:window-y="-9"
     inkscape:window-maximized="1"
     inkscape:current-layer="g18" /><g
     id="g18"
     inkscape:groupmode="layer"
     inkscape:label="dotcompass"
     transform="matrix(1.3333333,0,0,-1.3333333,0,213.33333)"><g
       id="g20" /><g
       id="g38"><g
         id="g40"
         clip-path="url(#clipPath44)"><g
           id="g46"
           clip-path="url(#clipPath50)"><path
             d="M 15,15 H 145 V 145 H 15 Z"
             style="fill:#05cb63;fill-opacity:1;fill-rule:nonzero;stroke:none"
             id="path52"
             inkscape:connector-curvature="0" /></g></g></g><g
       id="g54"><g
         id="g56"
         clip-path="url(#clipPath60)"><g
           id="g62"
           clip-path="url(#clipPath66)"><path
             d="m 42.45655,48.92221 h 69.41924 v 68.53234 H 42.45655 Z"
             style="fill:#ffffff;fill-opacity:1;fill-rule:nonzero;stroke:none"
             id="path68"
             inkscape:connector-curvature="0" /></g></g></g></g></svg>