<svg xmlns="http://www.w3.org/2000/svg" width="80" height="80">
    <g fill="none" fill-rule="evenodd">
        <circle cx="40" cy="40" r="32" fill="#fff" />
        <path fill="#a00000" d="M36.442 59.403l-.007.001a2.594 2.594 0 01-.349 0h-.697a3.762 3.762 0 01-.637-.12 4.623 4.623 0 01-1.235-.568 9.085 9.085 0 01-2.29-2.222 23.763 23.763 0 01-3.207-6.38 35.032 35.032 0 01-.994-3.389c-.07-.269-.13-.558-.19-.827l-.09-.428-.08-.41-.148-.827c-.04-.279-.13-.568-.13-.846-.349-2.253-.587-4.516-.796-6.51-.419-4.106-.657-7.554-.826-9.967l-.18-2.79-.06-.997-.02-.03v-.35a4.275 4.275 0 10-8.463 1.206l.14.997.418 2.83c.368 2.443.906 5.911 1.682 10.098.428 2.094.837 4.356 1.425 6.808.08.31.148.608.229.927l.258.997c.05.16.09.309.14.488l.15.479c.099.359.208.668.318.996.452 1.315.97 2.605 1.553 3.868a35.05 35.05 0 002.051 3.827 24.268 24.268 0 002.767 3.678 13.935 13.935 0 003.984 3.09 9.332 9.332 0 002.658.858c.474.077.954.113 1.434.11h.656l.678-.08c.23-.032.46-.075.686-.13.22-.05.429-.11.638-.17.21-.06.418-.13.617-.199.2-.07.4-.14.588-.23.283-.12.563-.251.838-.391a8.317 8.317 0 003.333 1.06h2.022c.229-.04.458-.08.677-.13a8.364 8.364 0 001.274-.409c.77-.319 1.5-.73 2.171-1.226a16.52 16.52 0 003.166-3.14 37.607 37.607 0 004.132-6.867c1.106-2.293 2.022-4.575 2.818-6.718a110.739 110.739 0 002.07-6.13 171.927 171.927 0 002.56-9.3c.268-1.127.478-2.013.617-2.622l.209-.926-.308.897c-.2.548-.498 1.456-.897 2.541a168.567 168.567 0 01-3.524 8.922 123.332 123.332 0 01-2.679 5.79c-1.005 2.014-2.12 4.107-3.405 6.17a34.488 34.488 0 01-4.4 5.812 12.638 12.638 0 01-2.659 2.132c-.426.248-.88.442-1.355.579a4.09 4.09 0 01-.636.12h-.604l.225-.23a42.473 42.473 0 005.158-6.609 74.5 74.5 0 003.813-6.647 109.435 109.435 0 002.908-6.161 103.853 103.853 0 003.594-9.489c.397-1.217.73-2.455.995-3.708a35.927 35.927 0 01-1.373 3.568c-.967 2.194-2.5 5.344-4.49 8.971-1.007 1.815-2.122 3.749-3.446 5.742-1.324 1.993-2.718 4.036-4.311 6.03a39.098 39.098 0 01-5.327 5.582c-.338.286-.687.56-1.047.82a6.757 6.757 0 01-.526-.99 17.814 17.814 0 01-1.066-3.15 36.533 36.533 0 01-.677-3.438 85.618 85.618 0 01-.427-3.47l-.16-1.713-.12-1.645c-.148-2.183-.16-4.246-.148-6.17.01-1.924.079-3.698.159-5.263s.179-2.93.269-4.057c.09-1.126.179-2.003.238-2.591l.1-.888-.02-.099v-.379a4.277 4.277 0 10-8.553-.18v.998c0 .657-.01 1.595 0 2.79.01 1.197.04 2.652.1 4.306.06 1.655.159 3.539.328 5.583.17 2.043.399 4.266.757 6.628l.299 1.794.169.887.18.907c.248 1.216.526 2.462.846 3.738a39.835 39.835 0 001.174 3.897 22.892 22.892 0 001.852 3.987c.139.236.284.469.436.697M40 80C17.91 80 0 62.09 0 40 0 17.908 17.91 0 40 0c22.092 0 40 17.908 40 40 0 22.09-17.908 40-40 40" />
    </g>
</svg>